<svg width="18" height="19" viewBox="0 0 18 19" fill="none" xmlns="http://www.w3.org/2000/svg">
<path d="M2.6754 17.1334C2.19418 17.0312 1.76873 16.7525 1.48297 16.352C1.19721 15.9516 1.07192 15.4586 1.13183 14.9704L2.115 6.99678C2.36603 5.35748 3.20053 3.86393 4.46502 2.79092C5.72952 1.7179 7.33894 1.13759 8.99726 1.15671C10.6556 1.13759 12.265 1.7179 13.5294 2.79092C14.794 3.86393 15.6285 5.35748 15.8795 6.99678L16.8627 14.9704C16.923 15.4572 16.799 15.949 16.5152 16.3493C16.2315 16.7494 15.8083 17.0291 15.3289 17.1334C11.1677 18.1111 6.83656 18.1111 2.6754 17.1334Z" stroke="black" stroke-width="1.47477" stroke-linecap="round" stroke-linejoin="round"/>
</svg>
