<svg width="24" height="26" viewBox="0 0 24 26" fill="none" xmlns="http://www.w3.org/2000/svg">
<path d="M6.80104 12.1333H5.93438V13.8667H6.80104V12.1333ZM17.201 13.8667H18.0677V12.1333H17.201V13.8667ZM13.7344 17.3333H12.8677V19.0667H13.7344V17.3333ZM17.201 19.0667H18.0677V17.3333H17.201V19.0667ZM6.80104 6.93333H5.93438V8.66667H6.80104V6.93333ZM10.2677 8.66667H11.1344V6.93333H10.2677V8.66667ZM17.201 0.866667L17.8139 0.253841L17.56 0H17.201V0.866667ZM22.401 6.06667H23.2677V5.70768L23.0139 5.45385L22.401 6.06667ZM6.80104 13.8667H17.201V12.1333H6.80104V13.8667ZM13.7344 19.0667H17.201V17.3333H13.7344V19.0667ZM6.80104 8.66667H10.2677V6.93333H6.80104V8.66667ZM20.6677 24.2667H3.33438V26H20.6677V24.2667ZM2.46771 23.4V2.6H0.734375V23.4H2.46771ZM3.33438 1.73333H17.201V0H3.33438V1.73333ZM21.5344 6.06667V23.4H23.2677V6.06667H21.5344ZM16.5881 1.47949L21.7881 6.67949L23.0139 5.45385L17.8139 0.253841L16.5881 1.47949ZM3.33438 24.2667C2.85573 24.2667 2.46771 23.8786 2.46771 23.4H0.734375C0.734375 24.8359 1.89843 26 3.33438 26V24.2667ZM20.6677 26C22.1036 26 23.2677 24.8359 23.2677 23.4H21.5344C21.5344 23.8786 21.1463 24.2667 20.6677 24.2667V26ZM2.46771 2.6C2.46771 2.12136 2.85573 1.73333 3.33438 1.73333V0C1.89843 0 0.734375 1.16406 0.734375 2.6H2.46771Z" fill="#3BAA90"/>
</svg>
