<svg width="20" height="20" viewBox="0 0 20 20" fill="none" xmlns="http://www.w3.org/2000/svg">
<path d="M12.1073 7.8916L7.89063 12.1083C7.34896 11.5666 7.01562 10.8249 7.01562 9.99993C7.01562 8.34993 8.34896 7.0166 9.99896 7.0166C10.824 7.0166 11.5656 7.34994 12.1073 7.8916Z" stroke="#98A2B3" stroke-width="1.5" stroke-linecap="round" stroke-linejoin="round"/>
<path d="M14.8479 4.8084C13.3896 3.7084 11.7229 3.1084 9.99792 3.1084C7.05625 3.1084 4.31458 4.84173 2.40625 7.84173C1.65625 9.01673 1.65625 10.9917 2.40625 12.1667C3.06458 13.2001 3.83125 14.0917 4.66458 14.8084" stroke="#98A2B3" stroke-width="1.5" stroke-linecap="round" stroke-linejoin="round"/>
<path d="M7.01562 16.2751C7.96563 16.6751 8.97396 16.8917 9.99896 16.8917C12.9406 16.8917 15.6823 15.1584 17.5906 12.1584C18.3406 10.9834 18.3406 9.0084 17.5906 7.8334C17.3156 7.40006 17.0156 6.99173 16.7073 6.6084" stroke="#98A2B3" stroke-width="1.5" stroke-linecap="round" stroke-linejoin="round"/>
<path d="M12.9281 10.583C12.7115 11.758 11.7531 12.7163 10.5781 12.933" stroke="#98A2B3" stroke-width="1.5" stroke-linecap="round" stroke-linejoin="round"/>
</svg>
