<svg width="16" height="16" viewBox="0 0 16 16" fill="none" xmlns="http://www.w3.org/2000/svg">
<path fill-rule="evenodd" clip-rule="evenodd" d="M7.23975 0.875977C10.7808 0.875977 13.6514 3.74656 13.6514 7.2876C13.6514 8.8013 13.1268 10.1925 12.2496 11.2893L14.8675 13.9079C15.1457 14.1861 15.1457 14.6372 14.8675 14.9154C14.6107 15.1722 14.2066 15.1919 13.9271 14.9746L13.86 14.9154L11.2414 12.2974C10.1446 13.1747 8.75344 13.6992 7.23975 13.6992C3.69871 13.6992 0.828125 10.8286 0.828125 7.2876C0.828125 3.74656 3.69871 0.875977 7.23975 0.875977ZM7.23418 2.30148C4.48004 2.30148 2.24736 4.53415 2.24736 7.28829C2.24736 10.0424 4.48004 12.2751 7.23418 12.2751C9.98832 12.2751 12.221 10.0424 12.221 7.28829C12.221 4.53415 9.98832 2.30148 7.23418 2.30148Z" fill="#98A2B3"/>
</svg>
