<svg width="67" height="16" viewBox="0 0 67 16" fill="none" xmlns="http://www.w3.org/2000/svg">
<path d="M15.155 7.44767C15.2457 6.93753 15.019 6.40471 14.5882 6.1213C14.2595 5.90591 13.84 5.83789 13.4659 5.96259C13.4206 5.97393 13.3752 5.9966 13.3185 6.01928C13.1031 6.1213 12.9104 6.28001 12.7177 6.41605C12.1962 6.76748 11.482 6.74481 10.9605 6.39338C10.5071 6.09863 10.235 5.57715 10.235 5.04434C10.235 4.59088 10.4731 4.23945 10.6771 3.85401C10.7452 3.74065 10.8018 3.61595 10.8472 3.49125C11.0286 3.00378 11.0286 2.43696 10.8132 1.94949C10.6545 1.58672 10.3824 1.2693 10.031 1.06525C8.8293 0.339713 7.31021 1.00857 6.97012 2.33493C6.4373 4.42084 7.54828 6.74481 9.29409 7.90113C10.1443 8.46795 11.1306 8.78537 12.1509 8.81938C12.627 8.83071 13.1145 8.7967 13.5793 8.68334C13.704 8.64933 13.8287 8.61532 13.9534 8.58131C14.1234 8.52463 14.2821 8.46795 14.4295 8.38859C14.7923 8.19587 15.0757 7.90113 15.155 7.44767ZM14.3615 8.10518C14.0214 8.2979 13.5906 8.37726 13.2052 8.38859C12.6043 8.39993 11.9922 8.24122 11.4594 7.87845C10.6318 7.32297 10.167 6.43873 10.1216 5.52047C10.201 5.89458 10.3824 6.23467 10.6885 6.50674C10.7565 6.57476 10.8358 6.63144 10.9152 6.68813C11.312 6.94886 11.7994 7.03955 12.2642 6.94886C12.7404 6.84684 13.0011 6.50674 13.4206 6.30269C13.806 6.10997 14.1574 6.17798 14.4068 6.38204C14.9283 6.76748 15.0757 7.68573 14.3615 8.10518Z" fill="#4FBFA3"/>
<path d="M3.29539 1.84821C2.80792 2.02959 2.45649 2.49438 2.43382 3.00453C2.41114 3.4013 2.56985 3.79808 2.85326 4.05881C2.88727 4.09282 2.93262 4.12683 2.96663 4.14951C3.15935 4.28554 3.39741 4.3649 3.61281 4.47826C4.17963 4.75034 4.50839 5.38518 4.47438 6.00868C4.44037 6.5415 4.13428 7.0403 3.66949 7.31238C3.27271 7.5391 2.84193 7.50509 2.42248 7.51643C2.28644 7.51643 2.1504 7.52777 2.0257 7.55044C1.50423 7.64113 1.01676 7.92455 0.710676 8.35533C0.47261 8.68409 0.336573 9.06953 0.336573 9.4663C0.302563 10.872 1.64026 11.847 2.96663 11.4842C5.0412 10.906 6.49227 8.77478 6.6283 6.68887C6.69632 5.67993 6.48093 4.64831 6.0048 3.75273C5.77807 3.33328 5.49466 2.9365 5.17724 2.58508C5.08655 2.49438 4.99585 2.40369 4.90516 2.313C4.78046 2.1883 4.64443 2.08627 4.49705 1.99558C4.12295 1.79153 3.72617 1.6895 3.29539 1.84821ZM4.25899 2.21097C4.59908 2.40369 4.88249 2.74379 5.07521 3.07254C5.39263 3.58268 5.55134 4.19485 5.506 4.84103C5.43798 5.8273 4.90516 6.67753 4.13428 7.17634C4.4177 6.92694 4.62175 6.58684 4.70111 6.20141C4.72378 6.11071 4.73512 6.00869 4.74645 5.90666C4.78046 5.43053 4.61041 4.9544 4.29299 4.60297C3.96424 4.2402 3.54479 4.18352 3.15935 3.92278C2.80792 3.68471 2.68322 3.34462 2.72856 3.0272C2.81926 2.39236 3.53345 1.80286 4.25899 2.21097Z" fill="#4FBFA3"/>
<path d="M4.38276 14.9304C4.77954 15.2591 5.3577 15.3272 5.82249 15.1004C6.17392 14.9304 6.446 14.5903 6.52535 14.2048C6.53669 14.1595 6.54802 14.1028 6.54802 14.0575C6.5707 13.8194 6.52535 13.5813 6.50268 13.3433C6.45733 12.7084 6.84277 12.1076 7.39826 11.8355C7.88572 11.5975 8.46388 11.6088 8.92868 11.8809C9.32545 12.1076 9.50684 12.493 9.73357 12.8558C9.80159 12.9692 9.88094 13.0825 9.9603 13.1846C10.3004 13.5927 10.7879 13.8647 11.3093 13.9214C11.7061 13.9668 12.1142 13.8874 12.4657 13.6947C13.69 13.0145 13.8714 11.3707 12.8964 10.4071C11.366 8.89938 8.78131 8.70667 6.91079 9.62492C6.00388 10.0784 5.22166 10.7699 4.68885 11.6315C4.43944 12.0396 4.23539 12.4817 4.08802 12.9352C4.05401 13.0599 4.02 13.1846 3.98599 13.3093C3.95198 13.4793 3.91797 13.6494 3.91797 13.8194C3.91797 14.2389 4.02 14.6243 4.38276 14.9304ZM4.21272 13.9101C4.21272 13.5247 4.37143 13.1052 4.55281 12.7651C4.83622 12.2436 5.28968 11.7902 5.86784 11.5068C6.76342 11.0646 7.76103 11.11 8.57725 11.5294C8.21448 11.4047 7.81771 11.4047 7.44361 11.5294C7.35291 11.5521 7.26222 11.5975 7.17153 11.6428C6.74074 11.8582 6.42332 12.2323 6.27595 12.6858C6.11724 13.1506 6.28728 13.5473 6.26461 14.0121C6.24194 14.4316 6.00387 14.7036 5.69779 14.8283C5.08562 15.0664 4.21272 14.7377 4.21272 13.9101Z" fill="#4FBFA3"/>
<path d="M13.6094 2.42624V1.80273H13.8814C13.9155 1.80273 13.9608 1.81407 13.9835 1.82541C14.0175 1.83675 14.0402 1.85942 14.0515 1.88209C14.0628 1.90476 14.0742 1.93877 14.0742 1.97278V1.98412C14.0742 2.01813 14.0628 2.05214 14.0515 2.07481C14.0288 2.09748 14.0061 2.12015 13.9835 2.13149V2.14283C14.0061 2.14283 14.0288 2.15417 14.0402 2.1655C14.0515 2.17684 14.0628 2.19951 14.0628 2.22218V2.42624H13.9381V2.23352C13.9381 2.22219 13.9381 2.21085 13.9268 2.19951C13.9155 2.18817 13.9041 2.18817 13.8928 2.18817H13.7114V2.42624H13.6094ZM13.7114 2.08615H13.8588C13.8928 2.08615 13.9155 2.07481 13.9268 2.06347C13.9495 2.05214 13.9495 2.02946 13.9495 1.99546V1.98412C13.9495 1.96145 13.9381 1.93877 13.9268 1.9161C13.9041 1.90476 13.8814 1.89343 13.8588 1.89343H13.7114V2.08615Z" fill="#4FBFA3"/>
<path d="M13.8017 2.78888C13.4276 2.78888 13.1328 2.48279 13.1328 2.12003C13.1328 1.74592 13.4389 1.45117 13.8017 1.45117C14.1758 1.45117 14.4705 1.75726 14.4705 2.12003C14.4705 2.48279 14.1758 2.78888 13.8017 2.78888ZM13.8017 1.58721C13.5183 1.58721 13.2802 1.82528 13.2802 2.10869C13.2802 2.3921 13.5183 2.63017 13.8017 2.63017C14.0851 2.63017 14.3231 2.3921 14.3231 2.10869C14.3231 1.82528 14.0851 1.58721 13.8017 1.58721Z" fill="#4FBFA3"/>
<path d="M17.375 10.5539V5.6112H18.3839V6.18936H18.5427C18.6333 6.01931 18.7921 5.8606 18.9961 5.72456C19.2002 5.58853 19.4836 5.52051 19.835 5.52051C20.1978 5.52051 20.4925 5.59986 20.7193 5.74724C20.946 5.89461 21.116 6.08733 21.2294 6.32539H21.3881C21.5015 6.09866 21.6715 5.90594 21.8869 5.75857C22.1023 5.59986 22.4084 5.53184 22.8165 5.53184C23.1339 5.53184 23.4173 5.59986 23.6667 5.72456C23.9161 5.84926 24.1089 6.05332 24.2562 6.30272C24.4036 6.56346 24.4716 6.88088 24.4716 7.25498V10.5426H23.44V7.33434C23.44 7.02826 23.3606 6.80153 23.1906 6.64282C23.0319 6.48411 22.7938 6.39341 22.4991 6.39341C22.1817 6.39341 21.9209 6.49544 21.7282 6.6995C21.5355 6.90355 21.4335 7.1983 21.4335 7.59508V10.5426H20.4018V7.33434C20.4018 7.02826 20.3225 6.80153 20.1524 6.64282C19.9937 6.48411 19.7557 6.39341 19.4609 6.39341C19.1435 6.39341 18.8827 6.49544 18.69 6.6995C18.4973 6.90355 18.3953 7.1983 18.3953 7.59508V10.5426H17.375V10.5539Z" fill="#070707"/>
<path d="M26.2059 12.56V11.6531H28.9607C29.1421 11.6531 29.2441 11.551 29.2441 11.347V9.82789H29.0854C29.0287 9.96393 28.938 10.0886 28.8133 10.2133C28.6886 10.338 28.5299 10.4401 28.3145 10.5194C28.1104 10.5988 27.8497 10.6441 27.5323 10.6441C27.1582 10.6441 26.8294 10.5648 26.5347 10.3947C26.2399 10.2247 26.0132 9.98661 25.8432 9.68052C25.6731 9.37444 25.5938 9.01167 25.5938 8.59222V5.62207H26.6254V8.51286C26.6254 8.94365 26.7274 9.26107 26.9428 9.46513C27.1582 9.66918 27.4529 9.77121 27.8384 9.77121C28.2578 9.77121 28.5979 9.63517 28.8586 9.35176C29.1194 9.06835 29.2441 8.66024 29.2441 8.12743V5.62207H30.2757V11.5737C30.2757 11.8798 30.185 12.1179 30.015 12.2992C29.8336 12.4806 29.5955 12.5713 29.2894 12.5713H26.2059V12.56Z" fill="#070707"/>
<path d="M33.8245 10.7017C33.3484 10.7017 32.9176 10.5997 32.5322 10.3956C32.1467 10.1916 31.8406 9.90814 31.6252 9.5227C31.3985 9.13726 31.2852 8.68381 31.2852 8.15099V8.02629C31.2852 7.49347 31.3985 7.04002 31.6252 6.65458C31.852 6.28048 32.1581 5.98573 32.5322 5.78167C32.9176 5.57762 33.3484 5.47559 33.8245 5.47559C34.3007 5.47559 34.6974 5.56628 35.0375 5.73633C35.3663 5.90637 35.6384 6.14444 35.8424 6.42785C36.0465 6.71126 36.1825 7.02868 36.2392 7.38011L35.2416 7.5955C35.2076 7.38011 35.1395 7.17606 35.0262 6.99467C34.9242 6.81329 34.7654 6.66591 34.5727 6.56389C34.38 6.46186 34.1306 6.40518 33.8359 6.40518C33.5524 6.40518 33.2917 6.4732 33.065 6.5979C32.8383 6.7226 32.6569 6.91532 32.5208 7.15338C32.3848 7.40278 32.3168 7.69753 32.3168 8.03763V8.12832C32.3168 8.47975 32.3848 8.77449 32.5208 9.02389C32.6569 9.2733 32.8383 9.45468 33.065 9.57938C33.2917 9.70408 33.5524 9.7721 33.8359 9.7721C34.2666 9.7721 34.5954 9.65874 34.8221 9.43201C35.0489 9.20528 35.1962 8.92187 35.2529 8.57044L36.2505 8.79716C36.1712 9.13726 36.0238 9.45468 35.8197 9.7381C35.6157 10.0215 35.3436 10.2596 35.0149 10.4296C34.7088 10.611 34.3007 10.7017 33.8245 10.7017Z" fill="#070707"/>
<path d="M39.5273 10.7015C39.0285 10.7015 38.5977 10.5995 38.2122 10.3954C37.8268 10.1913 37.5207 9.89659 37.3053 9.52249C37.0899 9.13705 36.9766 8.69492 36.9766 8.17345V8.02607C36.9766 7.5046 37.0899 7.05114 37.3053 6.67704C37.5207 6.30293 37.8268 6.00819 38.2122 5.80413C38.5977 5.60008 39.0398 5.49805 39.5273 5.49805C40.0261 5.49805 40.4569 5.60008 40.8536 5.80413C41.2391 6.00819 41.5452 6.30293 41.7605 6.67704C41.9759 7.05114 42.0893 7.5046 42.0893 8.02607V8.17345C42.0893 8.69492 41.9759 9.14838 41.7605 9.52249C41.5452 9.90793 41.2391 10.1913 40.8536 10.3954C40.4682 10.5995 40.0261 10.7015 39.5273 10.7015ZM39.5273 9.77189C39.9807 9.77189 40.3548 9.62452 40.6382 9.34111C40.9216 9.04636 41.069 8.64958 41.069 8.13944V8.04875C41.069 7.53861 40.933 7.1305 40.6496 6.84708C40.3662 6.55234 40.0034 6.4163 39.5386 6.4163C39.0965 6.4163 38.7224 6.56367 38.439 6.84708C38.1555 7.14183 38.0082 7.53861 38.0082 8.04875V8.13944C38.0082 8.64958 38.1555 9.05769 38.439 9.34111C38.711 9.63585 39.0851 9.77189 39.5273 9.77189Z" fill="#070707"/>
<path d="M44.0961 10.554L42.4297 5.61133H43.518L44.833 9.79448H44.9917L46.3068 5.61133H47.3951L45.7286 10.554H44.0961Z" fill="#070707"/>
<path d="M50.2514 10.7013C49.7526 10.7013 49.3105 10.5993 48.9364 10.3839C48.5623 10.1685 48.2676 9.87375 48.0635 9.48831C47.8481 9.10287 47.7461 8.66075 47.7461 8.15061V8.0259C47.7461 7.51576 47.8481 7.0623 48.0522 6.67687C48.2562 6.29143 48.551 5.99668 48.9137 5.78129C49.2878 5.56589 49.7186 5.46387 50.2061 5.46387C50.6822 5.46387 51.1017 5.56589 51.4531 5.78129C51.8159 5.99668 52.088 6.28009 52.292 6.65419C52.4961 7.0283 52.5981 7.47042 52.5981 7.96922V8.35466H48.8004C48.8117 8.78545 48.9591 9.13687 49.2312 9.38628C49.5032 9.64701 49.8547 9.77172 50.2628 9.77172C50.6482 9.77172 50.943 9.68103 51.1357 9.51098C51.3284 9.34093 51.4871 9.13687 51.5891 8.91014L52.4394 9.35227C52.3487 9.54499 52.2127 9.73771 52.0313 9.94176C51.8499 10.1458 51.6232 10.3272 51.3397 10.4632C51.0677 10.6333 50.6936 10.7013 50.2514 10.7013ZM48.8004 7.58378H51.5325C51.5098 7.20968 51.3738 6.91493 51.1357 6.71088C50.8976 6.49548 50.5802 6.39345 50.1948 6.39345C49.8093 6.39345 49.4919 6.49548 49.2425 6.71088C49.0044 6.91493 48.8571 7.20968 48.8004 7.58378Z" fill="#070707"/>
<path d="M53.582 10.5542V5.61154H54.591V6.1897H54.7497C54.829 5.98565 54.9537 5.82693 55.1351 5.73624C55.3165 5.63422 55.5319 5.58887 55.7926 5.58887H56.3821V6.51846H55.7473C55.4185 6.51846 55.1351 6.60915 54.9311 6.79053C54.7157 6.97191 54.6136 7.25533 54.6136 7.64077V10.5429H53.582V10.5542Z" fill="#070707"/>
<path d="M57.1088 10.7008C56.8707 10.7008 56.678 10.6215 56.5193 10.4741C56.3606 10.3154 56.2812 10.1227 56.2812 9.88459C56.2812 9.64652 56.3606 9.4538 56.5193 9.29509C56.678 9.14771 56.8707 9.06836 57.1088 9.06836C57.3469 9.06836 57.5396 9.14771 57.6983 9.29509C57.857 9.4538 57.9364 9.64652 57.9364 9.87324C57.9364 10.1113 57.857 10.3154 57.6983 10.4627C57.5396 10.6215 57.3469 10.7008 57.1088 10.7008Z" fill="#070707"/>
<path d="M60.9739 10.7017C60.5545 10.7017 60.1804 10.5997 59.829 10.3956C59.4775 10.1916 59.2055 9.90814 59.0014 9.53403C58.7973 9.15993 58.6953 8.70648 58.6953 8.16233V8.01495C58.6953 7.48214 58.7973 7.02868 59.0127 6.64324C59.2281 6.26914 59.5002 5.97439 59.8516 5.78167C60.2031 5.57762 60.5772 5.47559 60.9853 5.47559C61.4614 5.47559 61.8355 5.56628 62.0962 5.73633C62.357 5.90637 62.5497 6.11043 62.6744 6.32582H62.8331V5.61162H63.8421V9.38666C63.8421 9.59072 63.9328 9.69275 64.1255 9.69275H64.5449V10.5543H63.672C63.434 10.5543 63.2526 10.4863 63.1052 10.3503C62.9578 10.2142 62.8898 10.0328 62.8898 9.80611V9.7381H62.7424C62.6177 9.99883 62.4137 10.2256 62.1529 10.4069C61.8582 10.5997 61.4727 10.7017 60.9739 10.7017ZM61.2687 9.79478C61.7221 9.79478 62.0962 9.6474 62.3797 9.36399C62.6631 9.08058 62.8104 8.66113 62.8104 8.12832V8.03763C62.8104 7.50481 62.6631 7.10804 62.3797 6.81329C62.0849 6.52988 61.7221 6.3825 61.2687 6.3825C60.8266 6.3825 60.4638 6.52988 60.1691 6.81329C59.8743 7.0967 59.7383 7.50481 59.7383 8.03763V8.12832C59.7383 8.66113 59.8856 9.06924 60.1691 9.36399C60.4638 9.65873 60.8266 9.79478 61.2687 9.79478Z" fill="#070707"/>
<path d="M65.3047 10.554V5.61133H66.3363V10.554H65.3047Z" fill="#070707"/>
</svg>
