<svg width="28" height="27" viewBox="0 0 28 27" fill="none" xmlns="http://www.w3.org/2000/svg">
<path d="M27.3903 12.3483C27.5579 11.4053 27.1388 10.4204 26.3425 9.8965C25.7348 9.49834 24.9594 9.37261 24.2679 9.60312C24.184 9.62407 24.1002 9.66599 23.9954 9.7079C23.5973 9.8965 23.241 10.1899 22.8848 10.4413C21.9208 11.091 20.6006 11.0491 19.6367 10.3994C18.7984 9.85459 18.2955 8.89062 18.2955 7.9057C18.2955 7.06748 18.7356 6.41785 19.1128 5.70535C19.2385 5.4958 19.3433 5.26528 19.4271 5.03477C19.7624 4.13367 19.7624 3.08589 19.3642 2.1848C19.0708 1.51421 18.5679 0.92745 17.9183 0.550247C15.697 -0.790919 12.8889 0.445471 12.2602 2.89729C11.2753 6.75314 13.329 11.0491 16.5562 13.1865C18.1278 14.2343 19.951 14.8211 21.837 14.884C22.7171 14.9049 23.6182 14.842 24.4774 14.6325C24.7079 14.5696 24.9385 14.5068 25.169 14.4439C25.4833 14.3391 25.7767 14.2343 26.0491 14.0876C26.7197 13.7314 27.2436 13.1865 27.3903 12.3483ZM25.9234 13.5637C25.2947 13.92 24.4984 14.0667 23.7859 14.0876C22.6752 14.1086 21.5436 13.8152 20.5587 13.1446C19.0289 12.1178 18.1698 10.4833 18.0859 8.78585C18.2326 9.47739 18.5679 10.1061 19.1337 10.609C19.2594 10.7347 19.4061 10.8395 19.5528 10.9443C20.2863 11.4263 21.1874 11.5939 22.0466 11.4263C22.9267 11.2377 23.4087 10.609 24.184 10.2318C24.8965 9.87554 25.5462 10.0013 26.0072 10.3785C26.9712 11.091 27.2436 12.7884 25.9234 13.5637Z" fill="#4FBFA3"/>
<path d="M5.47062 1.99617C4.56952 2.33146 3.91989 3.19064 3.87798 4.13365C3.83607 4.8671 4.12945 5.60055 4.65334 6.08253C4.71621 6.1454 4.80003 6.20827 4.8629 6.25018C5.21915 6.50165 5.65922 6.64834 6.05738 6.8579C7.10516 7.36083 7.71288 8.53435 7.65001 9.68692C7.58714 10.6718 7.02134 11.5939 6.16215 12.0968C5.4287 12.5159 4.63239 12.4531 3.85702 12.474C3.60556 12.474 3.35409 12.495 3.12357 12.5369C2.15961 12.7045 1.25852 13.2284 0.692713 14.0248C0.252643 14.6325 0.00117393 15.345 0.00117393 16.0784C-0.0616932 18.6769 2.41108 20.4791 4.8629 19.8085C8.6978 18.7398 11.3801 14.8001 11.6316 10.9443C11.7573 9.0792 11.3592 7.17223 10.479 5.51673C10.0599 4.74137 9.53603 4.00791 8.94927 3.35829C8.78162 3.19064 8.61397 3.023 8.44633 2.85535C8.21581 2.62484 7.96435 2.43624 7.69193 2.26859C7.00039 1.89139 6.26694 1.70279 5.47062 1.99617ZM7.25185 2.66675C7.88053 3.023 8.40442 3.65167 8.76066 4.25939C9.34742 5.20239 9.64081 6.334 9.55698 7.52848C9.43125 9.35163 8.44633 10.9233 7.02134 11.8454C7.54523 11.3843 7.92244 10.7557 8.06913 10.0432C8.11104 9.87552 8.13199 9.68692 8.15295 9.49832C8.21581 8.61818 7.90148 7.73804 7.31472 7.08841C6.707 6.41783 5.93164 6.31305 5.21915 5.83107C4.56952 5.391 4.33901 4.76233 4.42283 4.17557C4.59048 3.00205 5.91069 1.91235 7.25185 2.66675Z" fill="#4FBFA3"/>
<path d="M7.48248 26.179C8.21593 26.7867 9.28466 26.9125 10.1438 26.4933C10.7935 26.179 11.2964 25.5503 11.4431 24.8378C11.4641 24.754 11.485 24.6492 11.485 24.5654C11.5269 24.1253 11.4431 23.6853 11.4012 23.2452C11.3174 22.0717 12.0299 20.961 13.0567 20.4581C13.9578 20.018 15.0265 20.039 15.8857 20.5419C16.6192 20.961 16.9545 21.6735 17.3736 22.3441C17.4993 22.5537 17.646 22.7632 17.7927 22.9518C18.4214 23.7062 19.3225 24.2092 20.2864 24.3139C21.0199 24.3978 21.7743 24.2511 22.4239 23.8948C24.6871 22.6375 25.0224 19.5989 23.2202 17.8177C20.3912 15.0306 15.6133 14.6743 12.1556 16.3717C10.4791 17.21 9.0332 18.4883 8.04828 20.0809C7.58725 20.8353 7.21005 21.6526 6.93763 22.4908C6.87476 22.7213 6.81189 22.9518 6.74902 23.1823C6.68616 23.4967 6.62329 23.811 6.62329 24.1254C6.62329 24.9007 6.81189 25.6132 7.48248 26.179ZM7.16814 24.293C7.16814 23.5805 7.46152 22.8051 7.79681 22.1765C8.32071 21.2125 9.15893 20.3743 10.2277 19.8504C11.8832 19.0331 13.7273 19.1169 15.2361 19.8923C14.5655 19.6618 13.8321 19.6618 13.1405 19.8923C12.9729 19.9342 12.8052 20.018 12.6376 20.1019C11.8413 20.5 11.2545 21.1916 10.9821 22.0298C10.6887 22.889 11.003 23.6224 10.9611 24.4816C10.9192 25.257 10.4791 25.7599 9.91334 25.9904C8.78173 26.4305 7.16814 25.8228 7.16814 24.293Z" fill="#4FBFA3"/>
</svg>
