<svg width="22" height="22" viewBox="0 0 22 22" fill="none" xmlns="http://www.w3.org/2000/svg">
<g clip-path="url(#clip0_2247_22266)">
<path d="M16.1307 16.1337H14.6641V14.667H16.1307V16.1337Z" fill="#12B76A"/>
<path d="M11.7344 16.1337H13.201V14.667H11.7344V16.1337Z" fill="#12B76A"/>
<path d="M19.0604 16.1337H17.5938V14.667H19.0604V16.1337Z" fill="#12B76A"/>
<path fill-rule="evenodd" clip-rule="evenodd" d="M4.4 8.8V5.13333C4.4 2.29827 6.69827 0 9.53333 0C12.3684 0 14.6667 2.29827 14.6667 5.13333V8.8H16.8667C18.0817 8.8 19.0667 9.78497 19.0667 11V11.8067C20.7403 12.1464 22 13.6261 22 15.4C22 17.1739 20.7403 18.6537 19.0667 18.9933V19.8C19.0667 21.015 18.0817 22 16.8667 22H2.2C0.984974 22 0 21.015 0 19.8V11C0 9.78497 0.984974 8.8 2.2 8.8H4.4ZM5.86667 5.13333C5.86667 3.10829 7.50829 1.46667 9.53333 1.46667C11.5584 1.46667 13.2 3.10829 13.2 5.13333V8.8H5.86667V5.13333ZM12.4667 13.2C11.2516 13.2 10.2667 14.185 10.2667 15.4C10.2667 16.615 11.2516 17.6 12.4667 17.6H18.3333C19.5483 17.6 20.5333 16.615 20.5333 15.4C20.5333 14.185 19.5483 13.2 18.3333 13.2H12.4667Z" fill="#12B76A"/>
</g>
<defs>
<clipPath id="clip0_2247_22266">
<rect width="22" height="22" fill="white"/>
</clipPath>
</defs>
</svg>
