<svg width="52" height="42" viewBox="0 0 52 42" fill="none" xmlns="http://www.w3.org/2000/svg">
<path d="M16.2627 20.587C18.7587 20.587 24.6269 17.5832 24.6269 10.3857C24.6269 9.38182 24.6024 8.4121 24.5198 7.49577C24.3839 5.69208 24.0145 4.09364 23.0945 2.86859C21.915 1.20208 19.8512 0.18457 16.2627 0.18457C12.6742 0.18457 10.6104 1.20219 9.43076 2.8687C8.51132 4.09313 8.14177 5.69063 8.00583 7.49318C7.92296 8.41034 7.89844 9.38089 7.89844 10.3858C7.89844 17.5832 13.7668 20.587 16.2627 20.587ZM9.14284 8.8249C9.23905 9.03544 9.64844 9.84614 10.2823 9.92218C11.0107 10.0096 12.2199 7.34244 16.2626 7.33593C20.3055 7.34244 21.5146 10.0096 22.2429 9.92218C22.8768 9.84614 23.2863 9.03533 23.3824 8.8249C23.4021 9.34147 23.4092 9.86435 23.4092 10.3858C23.4092 13.9039 21.8557 16.0837 20.5525 17.2929C18.9104 18.8165 17.0873 19.3695 16.2625 19.3695C15.4378 19.3695 13.6146 18.8165 11.9725 17.2929C10.6694 16.0837 9.11583 13.9039 9.11583 10.3858C9.11604 9.86435 9.12318 9.34147 9.14284 8.8249Z" fill="#3BAA90"/>
<path fill-rule="evenodd" clip-rule="evenodd" d="M20.5315 20.0045C19.6802 20.6106 18.7609 21.0263 17.7935 21.2417C17.6008 21.2846 17.4427 21.4215 17.3727 21.606L16.2623 24.5329L15.1519 21.606C15.0818 21.4215 14.9237 21.2846 14.7311 21.2417C13.6406 20.9989 12.6112 20.5016 11.6715 19.7639C11.4886 19.6203 11.2382 19.5982 11.0332 19.7079C9.26063 20.6551 5.00828 22.9452 3.80858 23.7539C1.77883 25.1213 0.891258 30.0702 0.734001 31.0484C0.718379 31.1454 0.727483 31.2447 0.760176 31.3373C0.832804 31.5423 2.69568 36.36 16.2623 36.36C20.0542 36.36 22.9318 35.9836 25.1116 35.4368C24.8176 35.1925 24.5335 34.9369 24.2599 34.6705C22.2524 35.1249 19.6449 35.4329 16.2618 35.4329C12.5457 35.4329 9.76592 35.0613 7.68848 34.5324C8.3233 29.1128 7.72065 24.4157 7.3991 22.4932C7.72251 22.3137 8.05224 22.1325 8.37979 21.9529C9.5978 25.1727 9.8132 29.2501 9.8132 29.2501H15.7102H16.8133H20.7511C20.1893 27.7062 19.8828 26.0396 19.8828 24.3015C19.8828 22.8052 20.1099 21.362 20.5315 20.0045Z" fill="#3BAA90"/>
<path d="M34.6601 11.1182L33.7281 13.2461C33.2465 13.2754 32.7665 13.3362 32.2911 13.428L30.8654 11.587L29.3287 12.1094L29.3211 14.4517C28.6702 14.7863 28.0464 15.1908 27.4571 15.6629L25.2854 14.6851L24.1735 15.8678L25.2853 17.9765C24.927 18.4876 24.6163 19.0219 24.3534 19.5744L21.969 19.6394L21.4849 21.1875L23.41 22.6056C23.3179 23.1799 23.2729 23.7603 23.2703 24.3412L21.1328 25.4243L21.3567 27.0317L23.7028 27.491C23.8427 27.9798 24.0155 28.4601 24.2233 28.93L22.6772 30.8494L23.5402 32.2233L25.9437 31.6607C26.0949 31.838 26.2521 32.0133 26.4163 32.1831C26.7618 32.5404 27.1245 32.8693 27.5014 33.1705L27.0344 35.5779L28.4391 36.3892L30.2742 34.7913C30.8011 35.0033 31.3418 35.1728 31.8912 35.3003L32.4902 37.6521L34.1071 37.7842L35.0792 35.5663C35.751 35.5259 36.4205 35.4254 37.0789 35.2639L38.6233 37.0532L40.1293 36.4504L40.0852 35.5433L36.5699 32.8777C35.5465 33.1365 34.4853 33.2057 33.443 33.0881C31.4986 32.8689 29.6299 31.9908 28.1634 30.4742C24.8115 27.0075 24.9074 21.4929 28.374 18.1411C30.053 16.5175 32.2128 15.6939 34.375 15.6706C36.6769 15.6457 38.9808 16.5276 40.7091 18.3152C43.5219 21.2246 43.9053 25.6013 41.907 28.9147L43.8647 30.3997C44.1094 30.0151 44.3297 29.6189 44.523 29.2132L46.89 29.1481L47.3741 27.6001L45.4626 26.1917C45.5552 25.6126 45.6011 25.0261 45.6022 24.4407L47.7263 23.3615L47.5025 21.754L45.1584 21.2948C44.9627 20.6216 44.7026 19.9621 44.3777 19.3276L45.7744 17.3929L44.8406 16.0667L42.5406 16.7346C42.5117 16.7039 42.4836 16.6729 42.4544 16.6427C42.0871 16.2627 41.6993 15.9146 41.2948 15.5978L41.7349 13.3244L40.3301 12.5131L38.5849 14.0326C38.0199 13.8052 37.4397 13.6283 36.8511 13.4968L36.279 11.2502L34.6601 11.1182ZM31.0989 20.5178C30.4655 20.525 29.8376 20.6806 29.2618 20.9636L32.0309 23.0648C32.8683 23.7002 33.1059 24.9077 32.4632 25.7553C31.8204 26.6034 30.586 26.7309 29.7364 26.0865L26.9693 23.9872C26.6859 25.5054 27.2225 27.1141 28.5365 28.1111C29.715 29.0049 31.2275 29.1723 32.5303 28.7043L32.823 28.599L33.0698 28.7865L41.3482 35.0671L41.595 35.2546L41.5739 35.5646C41.4737 36.9455 42.0387 38.3576 43.2177 39.252C44.5318 40.249 46.2271 40.3316 47.6132 39.6501L44.8462 37.5509C43.9966 36.9064 43.788 35.6829 44.431 34.8355C45.074 33.988 46.301 33.8922 47.1387 34.5274L49.9058 36.6267C50.1885 35.109 49.6541 33.4996 48.3404 32.5029C47.1578 31.6053 45.6573 31.4274 44.3621 31.8885L44.0712 31.9918L43.8244 31.8043L35.546 25.5239L35.2993 25.3363L35.3203 25.0283C35.4152 23.6574 34.8396 22.2608 33.6574 21.3636C32.8892 20.7809 31.9904 20.5077 31.0989 20.5179L31.0989 20.5178ZM33.7665 26.0443L43.8014 33.6586L43.1106 34.5713L33.0737 26.9552L33.7665 26.0443Z" fill="#3BAA90"/>
</svg>
