<svg width="22" height="20" viewBox="0 0 22 20" fill="none" xmlns="http://www.w3.org/2000/svg">
<path d="M21.83 10.6714V12.9031C21.83 13.5097 21.3317 14.0081 20.7142 14.0081H18.6233C17.4533 14.0081 16.3808 13.1522 16.2833 11.9822C16.2183 11.2997 16.4783 10.6606 16.9333 10.2164C17.3342 9.80474 17.8867 9.56641 18.4933 9.56641H20.7142C21.3317 9.56641 21.83 10.0647 21.83 10.6714Z" fill="#3BAA90"/>
<path d="M14.6591 12.1229C14.5616 10.9854 14.9732 9.86961 15.7966 9.05711C16.4899 8.35294 17.4541 7.94128 18.4941 7.94128H19.1116C19.4149 7.94128 19.6641 7.69211 19.6207 7.38878C19.3282 5.28711 17.5082 3.66211 15.3307 3.66211H4.4974C2.10323 3.66211 0.164062 5.60128 0.164062 7.99544V15.5788C0.164062 17.9729 2.10323 19.9121 4.4974 19.9121H15.3307C17.5191 19.9121 19.3282 18.2871 19.6207 16.1854C19.6641 15.8821 19.4149 15.6329 19.1116 15.6329H18.6241C16.5657 15.6329 14.8324 14.0946 14.6591 12.1229ZM12.0807 9.89128H5.58073C5.13656 9.89128 4.76823 9.53378 4.76823 9.07878C4.76823 8.62378 5.13656 8.26628 5.58073 8.26628H12.0807C12.5249 8.26628 12.8932 8.63461 12.8932 9.07878C12.8932 9.52294 12.5249 9.89128 12.0807 9.89128Z" fill="#3BAA90"/>
<path d="M13.3945 1.31206C13.6762 1.60456 13.427 2.03789 13.0154 2.03789H4.53287C3.35203 2.03789 2.24703 2.38456 1.3262 2.98039C0.903701 3.25122 0.329534 2.95872 0.535368 2.49289C1.14203 1.07372 2.5612 0.0878906 4.19703 0.0878906H10.2854C11.542 0.0878906 12.6579 0.532057 13.3945 1.31206Z" fill="#3BAA90"/>
</svg>
