<svg width="26" height="26" viewBox="0 0 26 26" fill="none" xmlns="http://www.w3.org/2000/svg">
<path d="M14.0859 12.8916H7.58594C7.14177 12.8916 6.77344 12.5233 6.77344 12.0791C6.77344 11.6349 7.14177 11.2666 7.58594 11.2666H14.0859C14.5301 11.2666 14.8984 11.6349 14.8984 12.0791C14.8984 12.5233 14.5301 12.8916 14.0859 12.8916Z" fill="#3BAA90"/>
<path d="M2.16406 12.8921C1.7199 12.8921 1.35156 12.5238 1.35156 12.0796V7.07465C1.35156 4.42048 3.5074 2.26465 6.16156 2.26465H12.2499C15.0341 2.26465 17.0599 4.11715 17.0599 6.66298C17.0599 7.10715 16.6916 7.47548 16.2474 7.47548C15.8032 7.47548 15.4349 7.10715 15.4349 6.66298C15.4349 4.75631 13.7774 3.88965 12.2499 3.88965H6.16156C4.40656 3.88965 2.97656 5.31965 2.97656 7.07465V12.0796C2.97656 12.5346 2.60823 12.8921 2.16406 12.8921Z" fill="#3BAA90"/>
<path d="M17.3307 23.7246H6.4974C3.65906 23.7246 1.35156 21.4171 1.35156 18.5788V10.9954C1.35156 8.15711 3.65906 5.84961 6.4974 5.84961H17.3307C20.1691 5.84961 22.4766 8.15711 22.4766 10.9954V12.5662C22.4766 13.0104 22.1082 13.3787 21.6641 13.3787H20.494C20.1149 13.3787 19.7683 13.5196 19.5191 13.7796L19.5082 13.7904C19.1507 14.1479 19.0099 14.6462 19.1399 15.1337C19.3024 15.7404 19.9416 16.1846 20.6566 16.1846H21.6641C22.1082 16.1846 22.4766 16.5529 22.4766 16.9971V18.5679C22.4766 21.4171 20.1691 23.7246 17.3307 23.7246ZM6.4974 7.47461C4.55823 7.47461 2.97656 9.05628 2.97656 10.9954V18.5788C2.97656 20.5179 4.55823 22.0996 6.4974 22.0996H17.3307C19.2699 22.0996 20.8516 20.5179 20.8516 18.5788V17.8204H20.6566C19.1941 17.8204 17.9265 16.8996 17.569 15.5671C17.2874 14.5162 17.5907 13.4004 18.3599 12.6421C18.9232 12.0679 19.6815 11.7537 20.494 11.7537H20.8516V10.9954C20.8516 9.05628 19.2699 7.47461 17.3307 7.47461H6.4974Z" fill="#3BAA90"/>
<path d="M22.718 17.8206H20.6272C18.9914 17.8206 17.6047 16.6073 17.4747 15.0473C17.3881 14.1481 17.7131 13.2706 18.3631 12.6314C18.9047 12.0681 19.6739 11.7539 20.4864 11.7539H22.7072C23.7689 11.7539 24.6355 12.6098 24.6355 13.6714V15.9031C24.6464 16.9648 23.7797 17.8206 22.718 17.8206ZM20.4972 13.3789C20.118 13.3789 19.7714 13.5197 19.5222 13.7797C19.2081 14.0831 19.0564 14.4948 19.0997 14.9064C19.1539 15.6214 19.8472 16.1956 20.6272 16.1956H22.718C22.8805 16.1956 23.0214 16.0656 23.0214 15.9031V13.6714C23.0214 13.5089 22.8805 13.3789 22.718 13.3789H20.4972Z" fill="#3BAA90"/>
</svg>
