<svg width="23" height="23" viewBox="0 0 23 23" fill="none" xmlns="http://www.w3.org/2000/svg">
<g clip-path="url(#clip0_1881_75544)">
<path d="M10.2699 1.5126L0.926175 20.2001C0.577581 20.9224 0.879456 21.7903 1.6 22.1389C1.79407 22.2324 2.0043 22.2827 2.21992 22.2845H20.9074C21.7088 22.2773 22.3539 21.6214 22.3467 20.82C22.3444 20.6052 22.2947 20.3935 22.2012 20.2001L12.8574 1.5126C12.7365 1.27326 12.5515 1.07217 12.3231 0.931673C12.0947 0.79118 11.8318 0.716797 11.5637 0.716797C11.2955 0.716797 11.0326 0.79118 10.8042 0.931673C10.5758 1.07217 10.3909 1.27326 10.2699 1.5126Z" fill="#F04438"/>
<path d="M9.62443 2.82417L0.855674 20.3257C0.526846 21.0032 0.810752 21.8189 1.48817 22.1478C1.66606 22.234 1.86192 22.2807 2.05958 22.2843H19.5791C19.7573 22.2827 19.9334 22.246 20.0973 22.1763C20.2613 22.1066 20.4099 22.0052 20.5347 21.8781C20.6595 21.751 20.7581 21.6005 20.8247 21.4352C20.8914 21.27 20.9248 21.0933 20.9232 20.9151C20.9211 20.7106 20.8732 20.5092 20.783 20.3257L12.0322 2.82417C11.8781 2.50504 11.6037 2.26013 11.2691 2.14323C10.9345 2.02632 10.5673 2.04697 10.2479 2.20065C9.97593 2.33251 9.75628 2.55216 9.62443 2.82417Z" fill="#F75C51"/>
<g opacity="0.2">
<path d="M11.5656 6.11328C12.3921 6.11328 13.057 6.77812 13.0031 7.55078L12.3921 16.1758C12.3238 16.6322 11.8998 16.9484 11.4434 16.8802C11.2659 16.854 11.1015 16.7714 10.9746 16.6445C10.8477 16.5177 10.7651 16.3533 10.739 16.1758L10.1281 7.55078C10.0742 6.77812 10.739 6.11328 11.5656 6.11328Z" fill="#424242"/>
<path d="M11.5664 17.6133C12.1612 17.6133 12.6445 18.0966 12.6445 18.6914C12.6445 19.2862 12.1612 19.7695 11.5664 19.7695C10.9716 19.7695 10.4883 19.2862 10.4883 18.6914C10.4883 18.0966 10.9716 17.6133 11.5664 17.6133Z" fill="#424242"/>
</g>
<path d="M11.5656 6.11328C12.3921 6.11328 13.057 6.77812 13.0031 7.55078L12.3921 16.1758C12.3238 16.6322 11.8998 16.9484 11.4434 16.8802C11.2659 16.854 11.1015 16.7714 10.9746 16.6445C10.8477 16.5177 10.7651 16.3533 10.739 16.1758L10.1281 7.55078C10.0742 6.77812 10.739 6.11328 11.5656 6.11328Z" fill="url(#paint0_linear_1881_75544)"/>
<path d="M11.5625 19.7695C12.1579 19.7695 12.6406 19.2868 12.6406 18.6914C12.6406 18.096 12.1579 17.6133 11.5625 17.6133C10.9671 17.6133 10.4844 18.096 10.4844 18.6914C10.4844 19.2868 10.9671 19.7695 11.5625 19.7695Z" fill="url(#paint1_linear_1881_75544)"/>
<path d="M9.62203 4.1363C9.4064 4.40583 5.77671 11.5035 5.77671 11.5035C5.77671 11.5035 5.45328 12.0426 5.90249 12.348C6.31578 12.6355 6.69312 12.2941 6.85484 12.0246C7.01656 11.755 10.3048 5.39411 10.4306 5.08864C10.5384 4.75263 10.463 4.38607 10.233 4.11833C9.99937 3.90271 9.76578 3.93864 9.62203 4.1363Z" fill="#FEF3F2"/>
<path d="M5.63203 14.1293C5.95952 14.1293 6.225 13.8638 6.225 13.5363C6.225 13.2088 5.95952 12.9434 5.63203 12.9434C5.30454 12.9434 5.03906 13.2088 5.03906 13.5363C5.03906 13.8638 5.30454 14.1293 5.63203 14.1293Z" fill="#FEF3F2"/>
</g>
<defs>
<linearGradient id="paint0_linear_1881_75544" x1="11.5656" y1="5.79883" x2="11.5656" y2="19.9384" gradientUnits="userSpaceOnUse">
<stop stop-color="white"/>
<stop offset="1" stop-color="#E3E3E3"/>
</linearGradient>
<linearGradient id="paint1_linear_1881_75544" x1="11.5625" y1="6.51398" x2="11.5625" y2="20.6536" gradientUnits="userSpaceOnUse">
<stop stop-color="white"/>
<stop offset="1" stop-color="white"/>
</linearGradient>
<clipPath id="clip0_1881_75544">
<rect width="23" height="23" fill="white"/>
</clipPath>
</defs>
</svg>
